<svg width="20" height="20" viewBox="0 0 20 20" fill="none" xmlns="http://www.w3.org/2000/svg">
<path fill-rule="evenodd" clip-rule="evenodd" d="M16.9645 14.6102L15.7915 13.4372C15.2055 12.8512 14.2555 12.8512 13.6705 13.4372L12.7485 14.3592C12.5425 14.5652 12.2305 14.6342 11.9645 14.5172C10.6285 13.9322 9.30854 13.0452 8.13154 11.8682C6.95954 10.6962 6.07554 9.38221 5.48954 8.05121C5.36754 7.77621 5.43854 7.45321 5.65154 7.24021L6.47754 6.41421C7.14854 5.74321 7.14854 4.79421 6.56254 4.20821L5.38954 3.03521C4.60854 2.25421 3.34254 2.25421 2.56154 3.03521L1.90954 3.68621C1.16854 4.42721 0.859536 5.49621 1.05954 6.55621C1.55354 9.16921 3.07154 12.0302 5.52054 14.4792C7.96954 16.9282 10.8305 18.4462 13.4435 18.9402C14.5035 19.1402 15.5725 18.8312 16.3135 18.0902L16.9645 17.4392C17.7455 16.6582 17.7455 15.3922 16.9645 14.6102V14.6102Z" stroke="#40424C" stroke-width="1.5" stroke-linecap="round" stroke-linejoin="round"/>
<path d="M11 4.99109C12.031 4.97709 13.067 5.35909 13.854 6.14609" stroke="#40424C" stroke-width="1.5" stroke-linecap="round" stroke-linejoin="round"/>
<path d="M16.682 3.31811C15.113 1.74911 13.056 0.964111 11 0.964111" stroke="#40424C" stroke-width="1.5" stroke-linecap="round" stroke-linejoin="round"/>
<path d="M15.0085 9C15.0225 7.969 14.6405 6.933 13.8535 6.146" stroke="#40424C" stroke-width="1.5" stroke-linecap="round" stroke-linejoin="round"/>
<path d="M16.6816 3.31812C18.2506 4.88712 19.0356 6.94412 19.0356 9.00012" stroke="#40424C" stroke-width="1.5" stroke-linecap="round" stroke-linejoin="round"/>
</svg>
