<svg version="1.1" xmlns="http://www.w3.org/2000/svg" xmlns:xlink="http://www.w3.org/1999/xlink" x="0px" y="0px"
	 viewBox="0 0 1190.6 841.9" style="enable-background:new 0 0 1190.6 841.9;" xml:space="preserve">
<style type="text/css">
	.st0{display:none;}
	.st1{fill:#FFFFFF;stroke:#000000;stroke-miterlimit:10;}
	.st2{fill:#FFFFFF;}
	.st3{fill:#FFFFFF;stroke:#020203;stroke-miterlimit:10;}
	.st4{fill:#020203;}
	.st5{fill:none;stroke:#020203;stroke-miterlimit:10;}
	.st6{fill:none;stroke:#020203;stroke-miterlimit:10;stroke-dasharray:3.085,1.0283;}
	.st7{fill:#FFFFFF;stroke:#020203;stroke-width:0.5;stroke-miterlimit:10;}
</style>

<g id="Квартира_1">
	<polygon class="st1" points="392.1,506.4 392.1,772.4 261.2,772.4 261.2,538.6 299.9,538.6 299.9,534.1 299.4,534.1 299.4,506.4"/>
	<rect x="299.8" y="722.4" class="st1" width="16.8" height="38.5"/>
	<rect x="316.6" y="706.7" width="10.1" height="41.1"/>
	<rect x="326.7" y="506.4" width="0.8" height="9.6"/>
	<rect x="296.4" y="538.6" class="st1" width="3.9" height="12"/>
	<rect x="263.6" y="568.1" transform="matrix(6.123234e-17 -1 1 6.123234e-17 -306.9445 838.0185)" class="st1" width="3.9" height="8.7"/>
	<rect x="263.6" y="669.2" transform="matrix(6.123234e-17 -1 1 6.123234e-17 -408.0185 939.0926)" class="st1" width="3.9" height="8.7"/>
	<polygon class="st1" points="392.1,570.5 289.2,570.5 289.2,574.4 294.4,574.4 294.4,608.8 298.3,608.8 298.3,574.4 392.1,574.4"/>
	<polygon class="st1" points="298.3,671.6 298.3,636.8 294.4,636.8 294.4,671.6 289.2,671.6 289.2,675.5 392.1,675.5 392.1,671.6"/>
	<rect x="286.7" y="696" class="st1" width="40" height="3.7"/>
	<rect x="282.4" y="719.8" class="st1" width="35.6" height="2.6"/>
	<rect x="285.8" y="697.8" transform="matrix(6.123234e-17 -1 1 6.123234e-17 -411.1667 988.1667)" class="st1" width="5.5" height="3.7"/>
	<rect x="319.5" y="699.5" transform="matrix(6.123234e-17 -1 1 6.123234e-17 -376.5 1026.1666)" class="st1" width="10.7" height="3.7"/>
	<rect x="319" y="709.8" class="st2" width="5.2" height="1.9"/>
	<rect x="319" y="714.4" class="st2" width="5.2" height="6.1"/>
	<rect x="319" y="723.3" class="st2" width="5.2" height="1.9"/>
	<rect x="319" y="730" class="st2" width="5.2" height="3.1"/>
	<rect x="319" y="737.3" class="st2" width="5.2" height="4.6"/>
	<ellipse class="st1" cx="306" cy="711.8" rx="6.2" ry="4.3"/>
	<rect x="310.1" y="707.7" class="st1" width="0.9" height="8.4"/>
	<rect x="310.9" y="706.7" class="st1" width="4.8" height="10.4"/>
	<rect x="312.6" y="711" width="1.4" height="1.4"/>
	<rect x="286.7" y="717.7" width="3.7" height="2.1"/>
	<path class="st1" d="M308.2,759.9L308.2,759.9c-4,0-7.3-3.3-7.3-7.3v-25.5c0-1.9,1.6-3.5,3.5-3.5h7c2.2,0,4,1.8,4,4v24.9 C315.5,756.7,312.2,759.9,308.2,759.9z"/>
	<circle cx="308.2" cy="729" r="1.4"/>
</g>
<g id="Слой_4">
	<g id="Квартира_2">
		<g>
			<polygon class="st1" points="256.7,772.4 256.7,530.3 257.7,530.3 257.2,506.4 127,506.4 127,772.4 			"/>
			<path class="st3" d="M234.4,724.1c0,0,1.6,7.9-6.3,7.9c-8.4,0-6.7-7.9-6.7-7.9H234.4z"/>
			<rect x="220.5" y="722" class="st3" width="14.5" height="3"/>
			<rect x="159.3" y="758" class="st3" width="12.9" height="14.3"/>
			<rect x="144.3" y="758" class="st3" width="15" height="14.3"/>
			<rect x="130.6" y="757.1" class="st3" width="13.7" height="15.2"/>
			<rect x="170.6" y="757.6" class="st4" width="22.6" height="14.7"/>
			<rect x="202.8" y="722.1" class="st3" width="16.8" height="38.5"/>
			<rect x="192.7" y="706.5" class="st4" width="10.1" height="41.1"/>
			<rect x="201.4" y="719.6" class="st3" width="35.6" height="2.6"/>
			<polygon class="st3" points="196.4,695.8 232.7,695.8 232.7,696.7 232.7,699.5 232.7,702.2 229.1,702.2 229.1,699.5 196.4,699.5 196.4,706.5 192.7,706.5 192.7,699.5 192.7,695.8 			"/>
			<rect x="195.1" y="709.6" class="st2" width="5.2" height="1.9"/>
			<rect x="195.1" y="714.3" class="st2" width="5.2" height="6.1"/>
			<rect x="195.1" y="723.1" class="st2" width="5.2" height="1.9"/>
			<rect x="195.1" y="729.8" class="st2" width="5.2" height="3.1"/>
			<rect x="195.1" y="737.1" class="st2" width="5.2" height="4.6"/>
			<ellipse class="st3" cx="213.4" cy="711.7" rx="6.2" ry="4.3"/>
			<rect x="208.4" y="707.6" class="st3" width="0.9" height="8.4"/>
			<rect x="203.6" y="706.5" class="st3" width="4.8" height="10.4"/>
			<rect x="205.4" y="710.9" class="st4" width="1.4" height="1.4"/>
			<rect x="229" y="717.5" class="st4" width="3.7" height="2.1"/>
			<path class="st3" d="M211.2,759.8L211.2,759.8c4,0,7.3-3.3,7.3-7.3V727c0-1.9-1.6-3.5-3.5-3.5h-7c-2.2,0-4,1.8-4,4v24.9 C203.9,756.5,207.2,759.8,211.2,759.8z"/>
			<circle class="st4" cx="211.2" cy="728.8" r="1.4"/>
			<g>
				<g>
					<line class="st5" x1="195.5" y1="675.4" x2="195.5" y2="676.9"/>
					<line class="st6" x1="195.5" y1="677.9" x2="195.5" y2="693.8"/>
					<line class="st5" x1="195.5" y1="694.3" x2="195.5" y2="695.8"/>
				</g>
			</g>
			<g>
				<g>
					<line class="st5" x1="193.1" y1="675.4" x2="193.1" y2="676.9"/>
					<line class="st6" x1="193.1" y1="677.9" x2="193.1" y2="693.8"/>
					<line class="st5" x1="193.1" y1="694.3" x2="193.1" y2="695.8"/>
				</g>
			</g>
			<rect x="201.8" y="745.5" class="st4" width="1.3" height="26.3"/>
			<rect x="199.1" y="745.2" class="st4" width="1.3" height="26.6"/>
			<rect x="192.3" y="745.2" class="st4" width="1.3" height="26.6"/>
			<rect x="182.3" y="760.7" class="st2" width="8.7" height="7"/>
			<rect x="181.7" y="768.7" class="st2" width="10" height="1.5"/>
			<polygon class="st4" points="185.8,767.9 185.8,765.3 187.7,765.3 187.7,767.9 188.8,767.9 188.8,771.2 184.8,771.2 184.8,767.9"/>
			<circle class="st7" cx="167.6" cy="761.7" r="2.1"/>
			<circle class="st7" cx="167.9" cy="767.5" r="1.5"/>
			<circle class="st7" cx="162.6" cy="767.4" r="2.2"/>
			<circle class="st7" cx="162.4" cy="761.7" r="1.8"/>
			<polygon class="st4" points="226.2,722.6 226.9,722.6 228.3,722.6 229.1,722.6 229.1,724.7 228.3,724.7 228.3,726.5 226.9,726.5 226.9,724.7 226.2,724.7 			"/>
			<line class="st5" x1="193.1" y1="678.5" x2="187" y2="695.8"/>
			<line class="st5" x1="192.7" y1="696.4" x2="187" y2="695.8"/>
			<line class="st5" x1="237" y1="719.2" x2="237.6" y2="715.1"/>
			<line class="st5" x1="252.9" y1="720.9" x2="237.6" y2="715.1"/>
			<line class="st5" x1="237" y1="703.1" x2="230.9" y2="718.6"/>
			<line class="st5" x1="231.7" y1="702.6" x2="237" y2="703.1"/>
			<rect x="221.2" y="506.4" class="st3" width="3.4" height="34.8"/>
			<polygon class="st3" points="224.6,603.6 224.6,569.3 221.2,569.3 221.2,603.6 123.8,603.6 123.8,608.1 226.6,608.1 226.6,603.6"/>
			<polygon class="st3" points="224.6,671.3 224.6,627.7 221.2,627.7 221.2,671.3 123.8,671.3 123.8,675.9 226.6,675.9 226.6,671.3"/>
			<rect x="246.9" y="603.5" class="st3" width="12.3" height="4.6"/>
			<rect x="246.9" y="671.2" class="st3" width="12.3" height="4.6"/>
			<line class="st5" x1="238.1" y1="673.6" x2="246.9" y2="673.6"/>
			<line class="st5" x1="230.1" y1="673.6" x2="231.1" y2="673.6"/>
			<line class="st5" x1="215.4" y1="627.3" x2="221.2" y2="628.6"/>
			<line class="st5" x1="222.9" y1="608.1" x2="215.4" y2="627.3"/>
			<line class="st5" x1="222.9" y1="541.3" x2="217.6" y2="554.7"/>
			<line class="st5" x1="223.5" y1="555.8" x2="217.6" y2="554.7"/>
			<line class="st5" x1="217.6" y1="556.9" x2="223.5" y2="555.8"/>
			<line class="st5" x1="222.5" y1="569.3" x2="217.6" y2="556.9"/>
		</g>
	</g>
</g>
<g id="Стены">
	<rect x="268.7" y="504.2" width="17.6" height="1"/>
	<rect x="251.1" y="520.2" transform="matrix(0.3585 -0.9335 0.9335 0.3585 -317.1737 579.8169)" width="24.4" height="1"/>
	<rect x="265.2" y="533" transform="matrix(0.9484 -0.3171 0.3171 0.9484 -154.8761 115.5209)" width="24.4" height="1"/>
	<rect x="285.3" y="533" transform="matrix(-9.994598e-02 -0.995 0.995 -9.994598e-02 -212.2944 875.0477)" width="8.7" height="1"/>
	<g>
		<polygon class="st1" points="261.2,530.3 256.7,530.3 256.7,772.4 261.2,772.4 261.2,538.6 267.9,538.6 267.9,534.1 261.2,534.1 
					"/>
		<polygon class="st1" points="261.2,374.9 256.7,374.9 256.7,434.7 125.2,434.7 125.2,439.2 256.7,439.2 256.7,502 125.2,502 
			125.2,498.3 87.9,498.3 87.9,439.9 119,439.9 119,437 87.9,437 87.9,340.8 125.2,340.8 125.2,332.7 87.9,332.7 85.5,332.7 
			83.9,332.7 83.9,340.8 85.5,340.8 85.5,498.3 83.9,498.3 83.9,506.4 90.8,506.4 90.8,671.2 90.8,673.6 93.2,673.6 118.1,673.6 
			118.1,671.2 93.2,671.2 93.2,506.4 125.2,506.4 256.7,506.4 261.2,506.4 261.2,502 261.2,439.2 273.2,439.2 273.2,434.7 
			261.2,434.7 		"/>
		<polygon class="st1" points="328.7,329.9 324.3,329.9 324.3,334.5 312.7,334.5 312.7,339 324.3,339 324.3,435.7 312.7,435.7 
			312.7,440.1 324.3,440.1 324.3,502 299.4,502 295,502 289.6,502 289.6,506.4 295,506.4 295,534.1 289.6,534.1 289.6,538.6 
			295,538.6 299.4,538.6 299.9,538.6 299.9,534.1 299.4,534.1 299.4,506.4 392.1,506.4 392.1,502 328.7,502 		"/>
		<polygon class="st1" points="435.1,574.3 435.1,566 399.9,566 399.9,574.3 428.7,574.3 428.7,671.2 399.9,671.2 399.9,679.5 
			435.1,679.5 435.1,671.2 430.4,671.2 430.4,574.3 		"/>
	</g>
	<g>
		<polygon class="st1" points="1100.6,127.8 943,127.8 943,103.3 943,94.4 934.1,94.4 921.9,94.4 921.9,103.3 934.1,103.3 
			934.1,127.8 934.1,136.7 943,136.7 1100.6,136.7 1100.6,401.1 943,401.1 934.1,401.1 934.1,410 934.1,434.4 700.6,434.4 
			700.6,410 700.6,401.1 691.7,401.1 401,401.1 392.1,401.1 392.1,410 392.1,772.4 127,772.4 127,136.7 216.7,136.7 221.2,136.7 
			225.6,136.7 225.6,103.3 396.6,103.3 396.6,127.8 396.6,136.7 405.5,136.7 763.6,136.7 772.4,136.7 772.4,127.8 772.4,103.3 
			784.7,103.3 784.7,94.4 772.4,94.4 763.6,94.4 763.6,103.3 763.6,127.8 405.5,127.8 405.5,103.3 405.5,94.4 396.6,94.4 
			225.6,94.4 216.7,94.4 216.7,103.3 216.7,127.8 127,127.8 118.1,127.8 118.1,136.7 118.1,781.3 119,781.3 127,781.3 392.1,781.3 
			401,781.3 401,772.4 401,410 691.7,410 691.7,434.4 691.7,443.3 700.6,443.3 934.1,443.3 943,443.3 943,434.4 943,410 1100.6,410 
			1109.5,410 1109.5,401.1 1109.5,136.7 1109.5,127.8 		"/>
		<rect x="814.2" y="94.4" class="st1" width="78.5" height="8.9"/>
	</g>
</g>
</svg>
