<?xml version="1.0" encoding="utf-8"?><svg xmlns="http://www.w3.org/2000/svg" xmlns:xlink="http://www.w3.org/1999/xlink"><symbol viewBox="0 0 101 12" id="arr" xmlns="http://www.w3.org/2000/svg"><path d="M100.53 6.53a.75.75 0 0 0 0-1.06L95.757.697a.75.75 0 0 0-1.06 1.06L98.939 6l-4.242 4.243a.75.75 0 0 0 1.06 1.06l4.773-4.773zM0 6.75h100v-1.5H0v1.5z"/><defs><linearGradient id="apaint0_linear" x1="66.5" y1="6" x2="67" y2="6" gradientUnits="userSpaceOnUse"><stop stop-color="#D8BB54"/><stop offset=".503" stop-color="#D8BB54"/><stop offset="1" stop-color="#fff"/></linearGradient></defs></symbol><symbol viewBox="0 0 27 8" id="arr_sm" xmlns="http://www.w3.org/2000/svg"><path d="M.646 4.354a.5.5 0 0 1 0-.708L3.828.464a.5.5 0 1 1 .708.708L1.707 4l2.829 2.828a.5.5 0 1 1-.708.708L.646 4.354zM27 4.5H1v-1h26v1z"/></symbol><symbol viewBox="0 0 24 25" id="eye" xmlns="http://www.w3.org/2000/svg"><path d="M2 13.5c5.523-6.667 14.477-6.667 20 0"/><path class="cfill" d="M15.682 9.818a4.5 4.5 0 1 1-6.364 6.364 4.5 4.5 0 0 1 6.364-6.364"/></symbol><symbol viewBox="0 0 61 61" id="figure" xmlns="http://www.w3.org/2000/svg"><path d="M1.059 30.5L30.406 1.062l29.438 29.347-29.347 29.438z"/></symbol><symbol viewBox="0 0 25 25" id="key" xmlns="http://www.w3.org/2000/svg"><path clip-rule="evenodd" d="M8 22c1.108 0 2.007-.918 2.008-2.05l.004-4.132a4.882 4.882 0 0 0 2.411-2.282c.914-1.793.74-4.045-.504-5.616a4.957 4.957 0 0 0-7.849.018c-1.237 1.577-1.406 3.83-.483 5.617a4.892 4.892 0 0 0 2.409 2.267l-.004 4.123C5.991 21.08 6.89 22 8 22z"/><path d="M8.794 10.5a.294.294 0 1 0-.588 0 .294.294 0 0 0 .588 0M13 5.613C13 4.169 11.88 3 10.5 3S8 4.17 8 5.613V10m4-2.913l.469-.472a2.071 2.071 0 0 1 2.945 0l5.976 6.022a2.11 2.11 0 0 1 0 2.97l-2.757 2.778c-.814.82-2.132.82-2.946 0l-3.596-3.625"/></symbol><symbol viewBox="0 0 24 24" id="news" xmlns="http://www.w3.org/2000/svg"><path d="M13 4.5h7m-7 5h7m-16 5h16m-16 5h16M9 9.5l-2.5-5-2.5 5m.5-1h4"/></symbol></svg>