<?xml version="1.0" encoding="utf-8"?><svg xmlns="http://www.w3.org/2000/svg" xmlns:xlink="http://www.w3.org/1999/xlink"><symbol viewBox="0 0 101 12" id="arr" xmlns="http://www.w3.org/2000/svg"><path d="M100.53 6.53a.75.75 0 0 0 0-1.06L95.757.697a.75.75 0 0 0-1.06 1.06L98.939 6l-4.242 4.243a.75.75 0 0 0 1.06 1.06l4.773-4.773zM0 6.75h100v-1.5H0v1.5z"/><defs><linearGradient id="apaint0_linear" x1="66.5" y1="6" x2="67" y2="6" gradientUnits="userSpaceOnUse"><stop stop-color="#D8BB54"/><stop offset=".503" stop-color="#D8BB54"/><stop offset="1" stop-color="#fff"/></linearGradient></defs></symbol><symbol viewBox="0 0 27 8" id="arr_sm" xmlns="http://www.w3.org/2000/svg"><path d="M.646 4.354a.5.5 0 0 1 0-.708L3.828.464a.5.5 0 1 1 .708.708L1.707 4l2.829 2.828a.5.5 0 1 1-.708.708L.646 4.354zM27 4.5H1v-1h26v1z"/></symbol><symbol viewBox="0 0 61 61" id="figure" xmlns="http://www.w3.org/2000/svg"><path d="M1.059 30.5L30.406 1.062l29.438 29.347-29.347 29.438z"/></symbol></svg>