<?xml version="1.0" encoding="utf-8"?><svg xmlns="http://www.w3.org/2000/svg" xmlns:xlink="http://www.w3.org/1999/xlink"><symbol viewBox="0 0 101 12" id="arr" xmlns="http://www.w3.org/2000/svg"><path d="M100.53 6.53a.75.75 0 0 0 0-1.06L95.757.697a.75.75 0 0 0-1.06 1.06L98.939 6l-4.242 4.243a.75.75 0 0 0 1.06 1.06l4.773-4.773zM0 6.75h100v-1.5H0v1.5z"/><defs><linearGradient id="apaint0_linear" x1="66.5" y1="6" x2="67" y2="6" gradientUnits="userSpaceOnUse"><stop stop-color="#D8BB54"/><stop offset=".503" stop-color="#D8BB54"/><stop offset="1" stop-color="#fff"/></linearGradient></defs></symbol><symbol viewBox="0 0 11 11" id="arr_list" xmlns="http://www.w3.org/2000/svg"><path d="M1 5l4.243 4.243L9.485 5"/></symbol><symbol viewBox="0 0 27 8" id="arr_sm" xmlns="http://www.w3.org/2000/svg"><path d="M.646 4.354a.5.5 0 0 1 0-.708L3.828.464a.5.5 0 1 1 .708.708L1.707 4l2.829 2.828a.5.5 0 1 1-.708.708L.646 4.354zM27 4.5H1v-1h26v1z"/></symbol><symbol viewBox="0 0 63 63" id="build" xmlns="http://www.w3.org/2000/svg"><path d="M61.95 60.9h-4.265c.045-.345.065-.697.065-1.05a7.304 7.304 0 0 0-4.2-6.655V17.85c0-.63-.42-1.05-1.05-1.05H36.75V1.05C36.75.42 36.33 0 35.7 0H7.35C6.72 0 6.3.42 6.3 1.05V60.9H1.05c-.63 0-1.05.42-1.05 1.05C0 62.58.42 63 1.05 63h60.9c.63 0 1.05-.42 1.05-1.05 0-.63-.42-1.05-1.05-1.05zm-10.5-8.326a7.578 7.578 0 0 0-1.05-.074c-.793 0-1.57.135-2.305.387-.183-.244-.478-.387-.845-.387-.63 0-1.05.42-1.05 1.05v.322a7.356 7.356 0 0 0-1.104.977 6.828 6.828 0 0 0-.156.17c-.87-1.087-1.99-1.874-3.258-2.257a1.06 1.06 0 0 0-.732-.262 1.24 1.24 0 0 0-.328.042 6.221 6.221 0 0 0-.722-.042c-.658 0-1.399.085-2 .329a6.374 6.374 0 0 0-.22.079 6.545 6.545 0 0 0-2.47-1.249l-.028-.007a6.57 6.57 0 0 0-.427-.094l-.084-.016a6.438 6.438 0 0 0-.484-.064l-.139-.01c-.05-.004-.099-.008-.148-.01a6.23 6.23 0 0 0-.53-.004l-.15.008-.06.003a6.17 6.17 0 0 0-2.71.812V18.9h21v33.674zM8.4 2.1h26.25v14.7H29.4c-.63 0-1.05.42-1.05 1.05v32.655a7.603 7.603 0 0 0-2.008-1.438l-.072-.036a7.27 7.27 0 0 0-2.416-.69l-.036-.004a7.178 7.178 0 0 0-.299-.024l-.08-.004a7.124 7.124 0 0 0-4.54 1.369v-.328c.001-.63-.419-1.05-1.049-1.05-.63 0-1.05.42-1.05 1.05v2.1c0 .158.026.302.075.43a7.568 7.568 0 0 0-1.02 2.825A7.132 7.132 0 0 0 12.6 55.93v-.279c0-.63-.42-1.05-1.05-1.05-.63 0-1.05.42-1.05 1.05v2.1c0 .123.017.237.047.342A7.323 7.323 0 0 0 9.526 60.9H8.4V2.1zm7.922 54.622l.063-.005a5.394 5.394 0 0 1 .415-.017c.63 0 1.05-.42 1.05-1.05 0-2.94 2.31-5.25 5.25-5.25 2.625 0 4.83 1.89 5.145 4.515a1.139 1.139 0 0 0 .515.703l.049.029a1.09 1.09 0 0 0 .276.108c.063.02.134.029.209.026.345.005.666-.183.841-.446l.105-.105c.84-1.05 1.995-1.68 3.36-1.68.71 0 1.418.199 2.054.57-1.253 1.178-1.963 2.713-2.045 4.356a6.174 6.174 0 0 0 .353 2.424H11.655c.491-2.26 2.363-3.969 4.667-4.178zM36.441 60.9c-.401-.678-.636-1.48-.636-2.205 0-1.161.458-2.207 1.245-2.972.15-.14.31-.268.48-.384.164 0 .329-.033.48-.11a4.13 4.13 0 0 1 5.88 2.206c.105.315.42.63.945.63.1 0 .21-.032.32-.088.264-.043.472-.237.625-.542a4.83 4.83 0 0 1 1.804-2.039.965.965 0 0 0 .42-.239A5.325 5.325 0 0 1 50.4 54.6c2.94 0 5.25 2.31 5.25 5.25 0 .315 0 .735-.105 1.05H36.441z"/><path d="M34.651 27.3c-.63 0-1.05.42-1.05 1.05v2.1c0 .63.42 1.05 1.05 1.05.63 0 1.05-.42 1.05-1.05v-2.1c0-.63-.42-1.05-1.05-1.05zm0 18.9c-.63 0-1.05.42-1.05 1.05v2.1c0 .63.42 1.05 1.05 1.05.63 0 1.05-.42 1.05-1.05v-2.1c0-.63-.42-1.05-1.05-1.05zm0-12.6c-.63 0-1.05.42-1.05 1.05v2.1c0 .63.42 1.05 1.05 1.05.63 0 1.05-.42 1.05-1.05v-2.1c0-.63-.42-1.05-1.05-1.05zm0 6.3c-.63 0-1.05.42-1.05 1.05v2.1c0 .63.42 1.05 1.05 1.05.63 0 1.05-.42 1.05-1.05v-2.1c0-.63-.42-1.05-1.05-1.05zm0-18.9c-.63 0-1.05.42-1.05 1.05v2.1c0 .63.42 1.05 1.05 1.05.63 0 1.05-.42 1.05-1.05v-2.1c0-.63-.42-1.05-1.05-1.05zm6.297 10.5c.63 0 1.05-.42 1.05-1.05v-2.1c0-.63-.42-1.05-1.05-1.05-.63 0-1.05.42-1.05 1.05v2.1c0 .63.42 1.05 1.05 1.05zm0-6.3c.63 0 1.05-.42 1.05-1.05v-2.1c0-.63-.42-1.05-1.05-1.05-.63 0-1.05.42-1.05 1.05v2.1c0 .63.42 1.05 1.05 1.05zm0 12.6c.63 0 1.05-.42 1.05-1.05v-2.1c0-.63-.42-1.05-1.05-1.05-.63 0-1.05.42-1.05 1.05v2.1c0 .63.42 1.05 1.05 1.05zm0 6.3c.63 0 1.05-.42 1.05-1.05v-2.1c0-.63-.42-1.05-1.05-1.05-.63 0-1.05.42-1.05 1.05v2.1c0 .63.42 1.05 1.05 1.05zm0 6.3c.63 0 1.05-.42 1.05-1.05v-2.1c0-.63-.42-1.05-1.05-1.05-.63 0-1.05.42-1.05 1.05v2.1c0 .63.42 1.05 1.05 1.05zm6.302-12.6c.63 0 1.05-.42 1.05-1.05v-2.1c0-.63-.42-1.05-1.05-1.05-.63 0-1.05.42-1.05 1.05v2.1c0 .63.42 1.05 1.05 1.05zm0-6.3c.63 0 1.05-.42 1.05-1.05v-2.1c0-.63-.42-1.05-1.05-1.05-.63 0-1.05.42-1.05 1.05v2.1c0 .63.42 1.05 1.05 1.05zm0 18.9c.63 0 1.05-.42 1.05-1.05v-2.1c0-.63-.42-1.05-1.05-1.05-.63 0-1.05.42-1.05 1.05v2.1c0 .63.42 1.05 1.05 1.05zm0-6.3c.63 0 1.05-.42 1.05-1.05v-2.1c0-.63-.42-1.05-1.05-1.05-.63 0-1.05.42-1.05 1.05v2.1c0 .63.42 1.05 1.05 1.05zm0-18.9c.63 0 1.05-.42 1.05-1.05v-2.1c0-.63-.42-1.05-1.05-1.05-.63 0-1.05.42-1.05 1.05v2.1c0 .63.42 1.05 1.05 1.05zM11.552 39.9c.63 0 1.05-.42 1.05-1.05v-2.1c0-.63-.42-1.05-1.05-1.05-.63 0-1.05.42-1.05 1.05v2.1c0 .63.42 1.05 1.05 1.05zm0 6.3c.63 0 1.05-.42 1.05-1.05v-2.1c0-.63-.42-1.05-1.05-1.05-.63 0-1.05.42-1.05 1.05v2.1c0 .63.42 1.05 1.05 1.05zm0 6.3c.63 0 1.05-.42 1.05-1.05v-2.1c0-.63-.42-1.05-1.05-1.05-.63 0-1.05.42-1.05 1.05v2.1c0 .63.42 1.05 1.05 1.05zm0-44.1c.63 0 1.05-.42 1.05-1.05v-2.1c0-.63-.42-1.05-1.05-1.05-.63 0-1.05.42-1.05 1.05v2.1c0 .63.42 1.05 1.05 1.05zm0 6.3c.63 0 1.05-.42 1.05-1.05v-2.1c0-.63-.42-1.05-1.05-1.05-.63 0-1.05.42-1.05 1.05v2.1c0 .63.42 1.05 1.05 1.05zm0 6.3c.63 0 1.05-.42 1.05-1.05v-2.1c0-.63-.42-1.05-1.05-1.05-.63 0-1.05.42-1.05 1.05v2.1c0 .63.42 1.05 1.05 1.05zm0 6.3c.63 0 1.05-.42 1.05-1.05v-2.1c0-.63-.42-1.05-1.05-1.05-.63 0-1.05.42-1.05 1.05v2.1c0 .63.42 1.05 1.05 1.05zm0 6.3c.63 0 1.05-.42 1.05-1.05v-2.1c0-.63-.42-1.05-1.05-1.05-.63 0-1.05.42-1.05 1.05v2.1c0 .63.42 1.05 1.05 1.05zm6.297-18.9c.63 0 1.05-.42 1.05-1.05v-2.1c0-.63-.42-1.05-1.05-1.05-.63 0-1.05.42-1.05 1.05v2.1c0 .63.42 1.05 1.05 1.05zm0-6.3c.63 0 1.05-.42 1.05-1.05v-2.1c0-.63-.42-1.05-1.05-1.05-.63 0-1.05.42-1.05 1.05v2.1c0 .63.42 1.05 1.05 1.05zm0 18.9c.63 0 1.05-.42 1.05-1.05v-2.1c0-.63-.42-1.05-1.05-1.05-.63 0-1.05.42-1.05 1.05v2.1c0 .63.42 1.05 1.05 1.05zm0-6.3c.63 0 1.05-.42 1.05-1.05v-2.1c0-.63-.42-1.05-1.05-1.05-.63 0-1.05.42-1.05 1.05v2.1c0 .63.42 1.05 1.05 1.05zm0 12.6c.63 0 1.05-.42 1.05-1.05v-2.1c0-.63-.42-1.05-1.05-1.05-.63 0-1.05.42-1.05 1.05v2.1c0 .63.42 1.05 1.05 1.05zm0 6.3c.63 0 1.05-.42 1.05-1.05v-2.1c0-.63-.42-1.05-1.05-1.05-.63 0-1.05.42-1.05 1.05v2.1c0 .63.42 1.05 1.05 1.05zm0 6.3c.63 0 1.05-.42 1.05-1.05v-2.1c0-.63-.42-1.05-1.05-1.05-.63 0-1.05.42-1.05 1.05v2.1c0 .63.42 1.05 1.05 1.05zM24.15 21c.63 0 1.05-.42 1.05-1.05v-2.1c0-.63-.42-1.05-1.05-1.05-.63 0-1.05.42-1.05 1.05v2.1c0 .63.42 1.05 1.05 1.05zm0-6.3c.63 0 1.05-.42 1.05-1.05v-2.1c0-.63-.42-1.05-1.05-1.05-.63 0-1.05.42-1.05 1.05v2.1c0 .63.42 1.05 1.05 1.05zm0-6.3c.63 0 1.05-.42 1.05-1.05v-2.1c0-.63-.42-1.05-1.05-1.05-.63 0-1.05.42-1.05 1.05v2.1c0 .63.42 1.05 1.05 1.05zm0 37.8c.63 0 1.05-.42 1.05-1.05v-2.1c0-.63-.42-1.05-1.05-1.05-.63 0-1.05.42-1.05 1.05v2.1c0 .63.42 1.05 1.05 1.05zm0-6.3c.63 0 1.05-.42 1.05-1.05v-2.1c0-.63-.42-1.05-1.05-1.05-.63 0-1.05.42-1.05 1.05v2.1c0 .63.42 1.05 1.05 1.05zm0-6.3c.63 0 1.05-.42 1.05-1.05v-2.1c0-.63-.42-1.05-1.05-1.05-.63 0-1.05.42-1.05 1.05v2.1c0 .63.42 1.05 1.05 1.05zm0-6.3c.63 0 1.05-.42 1.05-1.05v-2.1c0-.63-.42-1.05-1.05-1.05-.63 0-1.05.42-1.05 1.05v2.1c0 .63.42 1.05 1.05 1.05zm6.3-12.6c.63 0 1.05-.42 1.05-1.05v-2.1c0-.63-.42-1.05-1.05-1.05-.63 0-1.05.42-1.05 1.05v2.1c0 .63.42 1.05 1.05 1.05zm0-6.3c.63 0 1.05-.42 1.05-1.05v-2.1c0-.63-.42-1.05-1.05-1.05-.63 0-1.05.42-1.05 1.05v2.1c0 .63.42 1.05 1.05 1.05z"/></symbol><symbol viewBox="0 0 19 19" id="date" xmlns="http://www.w3.org/2000/svg"><path d="M16.823 19H2.177A2.179 2.179 0 0 1 0 16.823V3.76c0-1.2.976-2.176 2.177-2.176h14.646c1.2 0 2.177.975 2.177 2.176v13.063A2.179 2.179 0 0 1 16.823 19zM2.177 2.771a.99.99 0 0 0-.99.99v13.062c0 .546.445.99.99.99h14.646c.545 0 .99-.444.99-.99V3.76a.99.99 0 0 0-.99-.989H2.177z"/><path d="M18.406 7.521H.594a.594.594 0 0 1 0-1.188h17.812a.594.594 0 0 1 0 1.188zM4.552 4.75a.594.594 0 0 1-.594-.594V.594a.594.594 0 0 1 1.187 0v3.562a.594.594 0 0 1-.593.594zm9.896 0a.594.594 0 0 1-.593-.594V.594a.594.594 0 0 1 1.187 0v3.562a.594.594 0 0 1-.594.594z"/></symbol><symbol viewBox="0 0 62 57" id="department" xmlns="http://www.w3.org/2000/svg"><path d="M60.931 26.526H47.259v-2.621a1.06 1.06 0 0 0-.545-.923L32.069 14.81v-4.16h2.897v1.581c0 .586.478 1.062 1.069 1.062h8.733a1.065 1.065 0 0 0 1.005-1.422l-.876-2.473.887-2.42a1.06 1.06 0 0 0-1.005-1.422h-3.977V4.017c0-.586-.478-1.061-1.069-1.061H32.07V1.661c0-.586-.479-1.06-1.069-1.06s-1.069.474-1.069 1.06v13.15l-14.645 8.16a1.06 1.06 0 0 0-.545.923v2.622H1.069c-.59 0-1.069.475-1.069 1.06V55.34c0 .586.479 1.061 1.069 1.061h59.862c.59 0 1.069-.475 1.069-1.061V27.587c0-.586-.479-1.06-1.069-1.06zM40.802 9.59l-.042-.043V7.721h2.437l-.438 1.358a1.054 1.054 0 0 0 0 .733l.502 1.358h-6.157v-.52h2.63c.59 0 1.068-.475 1.068-1.061zm-8.733-4.51h6.595v3.449H32.07v-3.45zM14.741 54.278H2.138v-25.63H14.74v25.63zm15.19 0h-5.612v-12.12h5.612v12.12zm7.75 0h-5.612v-12.12h5.612v12.12zm7.483 0h-5.345V41.097c0-.586-.479-1.061-1.069-1.061h-15.5c-.59 0-1.069.475-1.069 1.061v13.18h-5.345V24.564L31 16.646l14.121 7.874.043 3.057v26.7zm14.698 0H47.26v-25.63h12.603v25.63z"/><path d="M31 19.894c-2.475.005-4.479 2-4.479 4.457.006 2.456 2.016 4.442 4.49 4.436 2.474-.006 4.474-2.002 4.468-4.457-.005-2.452-2.01-4.436-4.479-4.436zm0 6.77a2.333 2.333 0 0 1-2.33-2.335A2.333 2.333 0 0 1 31 22.017a2.343 2.343 0 0 1 2.342 2.335h.01A2.333 2.333 0 0 1 31 26.664zm-24.15 4.32H4.712v4.245H6.85v-4.245zm5.27 0H9.983v4.245h2.137v-4.245zm12.242 0h-4.275v2.122h4.275v-2.122zm8.777 0h-4.276v2.122h4.276v-2.122zm8.775 0h-4.276v2.122h4.276v-2.122zm-17.552 4.944h-4.275v2.123h4.275v-2.123zm8.777.001h-4.276v2.122h4.276V35.93zm8.775 0h-4.276v2.122h4.276V35.93zM6.85 39.335H4.712v4.245H6.85v-4.245zm5.27 0H9.983v4.245h2.137v-4.245zm-5.27 8.363H4.712v4.245H6.85v-4.245zm5.27 0H9.983v4.245h2.137v-4.245zm39.896-16.714h-2.138v4.245h2.138v-4.245zm5.27 0h-2.138v4.245h2.138v-4.245zm-5.27 8.351h-2.138v4.245h2.138v-4.245zm5.27 0h-2.138v4.245h2.138v-4.245zm-5.27 8.363h-2.138v4.245h2.138v-4.245zm5.27 0h-2.138v4.245h2.138v-4.245z"/></symbol><symbol viewBox="0 0 30 40" id="document" xmlns="http://www.w3.org/2000/svg"><path d="M3 1h15c6.075 0 11 4.925 11 11v25a2 2 0 0 1-2 2H3a2 2 0 0 1-2-2V3a2 2 0 0 1 2-2zm3 16h15M6 21h15M6 25h15M6 29h9"/></symbol><symbol viewBox="0 0 24 25" id="eye" xmlns="http://www.w3.org/2000/svg"><path d="M2 13.5c5.523-6.667 14.477-6.667 20 0"/><path class="hfill" d="M15.682 9.818a4.5 4.5 0 1 1-6.364 6.364 4.5 4.5 0 0 1 6.364-6.364"/></symbol><symbol viewBox="0 0 61 61" id="figure" xmlns="http://www.w3.org/2000/svg"><path d="M1.059 30.5L30.406 1.062l29.438 29.347-29.347 29.438z"/></symbol><symbol viewBox="0 0 399 180" id="floor15" xmlns="http://www.w3.org/2000/svg"><path d="M39.5 143.5L0 179.5v-52l38.5-34 15 9.5 105-95.5 74-7.5L338 71l17.5-11.5 43 28v52l-43-28-17.5 10-103.5-67-76 5-105 90-14-6z" fill-opacity=".8"/></symbol><symbol viewBox="0 0 58 58" id="horse" xmlns="http://www.w3.org/2000/svg"><path d="M20.85 17.284a.856.856 0 0 0 .733-1.297 81.644 81.644 0 0 1-1.007-1.742.857.857 0 0 0-1.493.841c.36.64.702 1.232 1.028 1.78a.856.856 0 0 0 .738.418z"/><path d="M56.805 47.068a2.318 2.318 0 0 0-2.367.09 28.58 28.58 0 0 1-2.825 1.587l-5.318-12.062c2.42-1.091 3.572-3.147 3.87-6.902.381 3.274.905 5.984 2.794 7.082a3.5 3.5 0 0 0 1.794.463 6.942 6.942 0 0 0 2.734-.671.856.856 0 0 0 .244-1.407 19.6 19.6 0 0 0-.87-.773c-1.403-1.194-1.735-1.477-1.31-8.978.154-2.708-.7-4.766-2.402-5.793-1.874-1.13-4.517-.875-7.306.686a12.918 12.918 0 0 0-5.52-1.077h-9.257a25.018 25.018 0 0 1-2.482-4.154l-.464-.992C25.945 9.5 23.482 4.245 18.06 3.163a12.403 12.403 0 0 0-.414-1.311.856.856 0 0 0-1.072-.49 5.943 5.943 0 0 0-2.193 1.379A15.824 15.824 0 0 0 12.184.21a.856.856 0 0 0-1.178.05C9.582 1.729 8.986 4.067 9.207 7.2a21.191 21.191 0 0 0-2.291 2.872c-.518.731-1.007 1.422-1.54 2.041-.6.698-1.254 1.355-1.886 1.99-1.792 1.8-3.484 3.5-3.484 5.687a4.74 4.74 0 0 0 1.538 3.755c1.598 1.269 4.65.964 7.781-.78.885-.495 1.6-.62 2.185-.376 1.469.602 2.308 3.496 2.982 5.82.216.743.419 1.444.64 2.082a15.4 15.4 0 0 0 .956 2.281 10.485 10.485 0 0 0 .479 8.025L12.814 51.2a35.14 35.14 0 0 1-9.246-4.039 2.318 2.318 0 0 0-2.367-.09 2.304 2.304 0 0 0-.164 3.94C7.87 55.45 18.064 58 29.003 58c10.94 0 21.134-2.548 27.966-6.992a2.301 2.301 0 0 0 .685-3.135 2.302 2.302 0 0 0-.85-.805zm-4.54-25.893c1.15.693 1.695 2.153 1.577 4.228-.433 7.628-.062 8.647 1.62 10.133a2.309 2.309 0 0 1-1.642-.147c-1.428-.832-1.764-3.984-2.121-7.323-.04-.382-.082-.766-.125-1.153-.245-2.2-1.343-2.883-2.245-3.064a7.048 7.048 0 0 0-1.81-2.374c1.882-.865 3.602-.994 4.746-.303v.003zm-24.23-.363a7.483 7.483 0 0 0 1.903.212h9.333v3.27a2.083 2.083 0 0 1-2.08 2.08h-7.077a2.082 2.082 0 0 1-2.08-2.08v-3.482zm-1.469-5.923c.157.336.313.67.47 1a27.28 27.28 0 0 0 1.895 3.36 3.56 3.56 0 0 1-1.32-.441c-1.608-.935-3.203-3.574-6.395-9.512a6.258 6.258 0 0 0-2.594-2.75 17.912 17.912 0 0 0-.171-1.524c4.084 1.238 6.134 5.613 8.116 9.867zM11.705 2.149c.56.61 1.073 1.261 1.535 1.948-.28.403-.537.822-.769 1.255a5.683 5.683 0 0 0-1.598.584 7.645 7.645 0 0 1 .832-3.787zm6.607 38.657a.862.862 0 0 0-.08-.738 8.646 8.646 0 0 1-.404-7.266c0-.005.005-.007.006-.012.358-.936.838-1.822 1.429-2.632a.857.857 0 1 0-1.39-1c-.306.426-.587.87-.843 1.328a33 33 0 0 1-.278-.76 41.78 41.78 0 0 1-.612-1.996c-.818-2.817-1.745-6.011-3.976-6.928-1.085-.445-2.319-.287-3.67.468-2.724 1.517-5.021 1.618-5.858.955a3.047 3.047 0 0 1-.916-2.434c0-1.48 1.383-2.87 2.985-4.482.653-.657 1.329-1.336 1.97-2.081.587-.68 1.121-1.437 1.64-2.169a17.476 17.476 0 0 1 2.31-2.839l.024-.022a4.46 4.46 0 0 1 2.486-1.218.856.856 0 0 0 .666-.47A10.595 10.595 0 0 1 15 4.588c.375-.48.826-.895 1.337-1.228.341 1.222.541 2.478.598 3.746a.856.856 0 0 0 .47.728 4.74 4.74 0 0 1 2.288 2.25c3.255 6.06 4.863 8.672 6.627 9.924v4.286a3.798 3.798 0 0 0 3.793 3.794h7.077a3.796 3.796 0 0 0 3.793-3.794v-3.25c5.068.191 7.541 2.613 7.542 7.378-.133 4.885-1.436 6.256-3.642 6.971a.855.855 0 0 0-.519 1.16l5.692 12.91c-.701.303-1.42.595-2.166.865l-4.239-9.62a.859.859 0 0 0-.57-.483 8.522 8.522 0 0 1-4.603-3.701v-.004a10.59 10.59 0 0 1-1.434-4.212.855.855 0 0 0-1.284-.645.857.857 0 0 0-.414.87c.156 1.239.491 2.449.995 3.592h-2.444l-1.973-.005a41.08 41.08 0 0 1-8.443-.695.856.856 0 0 0-.988.547L16.67 52.145a50.238 50.238 0 0 1-2.197-.5l3.838-10.839zm18.976-2.973a10.383 10.383 0 0 0 4.953 3.916l4.02 9.129a58.045 58.045 0 0 1-17.258 2.472 62.913 62.913 0 0 1-10.628-.884l5.481-15.22a45.76 45.76 0 0 0 8.068.587l1.966.003c1.216.002 2.344.005 3.395-.003h.003zm18.749 11.74c-6.564 4.266-16.417 6.714-27.034 6.714-10.616 0-20.469-2.448-27.03-6.715a.578.578 0 0 1-.253-.486.572.572 0 0 1 .302-.513.601.601 0 0 1 .62.026c6.367 4.108 15.976 6.464 26.361 6.464 10.386 0 19.995-2.356 26.363-6.465a.593.593 0 0 1 .842.19c.054.09.08.193.08.299a.58.58 0 0 1-.253.485h.002z"/><path d="M13.006 10.306a2.325 2.325 0 1 0 0 4.65 2.325 2.325 0 0 0 0-4.65zm0 2.937a.612.612 0 1 1 0-1.224.612.612 0 0 1 0 1.224z"/></symbol><symbol viewBox="0 0 25 25" id="key" xmlns="http://www.w3.org/2000/svg"><path clip-rule="evenodd" d="M8 22c1.108 0 2.007-.918 2.008-2.05l.004-4.132a4.882 4.882 0 0 0 2.411-2.282c.914-1.793.74-4.045-.504-5.616a4.957 4.957 0 0 0-7.849.018c-1.237 1.577-1.406 3.83-.483 5.617a4.892 4.892 0 0 0 2.409 2.267l-.004 4.123C5.991 21.08 6.89 22 8 22z"/><path d="M8.794 10.5a.294.294 0 1 0-.588 0 .294.294 0 0 0 .588 0M13 5.613C13 4.169 11.88 3 10.5 3S8 4.17 8 5.613V10m4-2.913l.469-.472a2.071 2.071 0 0 1 2.945 0l5.976 6.022a2.11 2.11 0 0 1 0 2.97l-2.757 2.778c-.814.82-2.132.82-2.946 0l-3.596-3.625"/></symbol><symbol viewBox="0 0 14 19" id="location" xmlns="http://www.w3.org/2000/svg"><path d="M7.029 0h-.03C3.14 0 0 3.17 0 7.065c0 2.136 1.082 3.802 2.287 5.46L6.99 19s4.445-6.091 4.723-6.474C12.918 10.867 14 9.2 14 7.066 14 3.178 10.876.015 7.029 0zm3.795 11.868c-.278.383-3.199 4.42-3.82 5.269l-3.828-5.27c-1.134-1.56-2.073-3-2.073-4.802 0-3.273 2.63-5.937 5.869-5.952H7c3.252 0 5.897 2.67 5.897 5.952 0 1.802-.939 3.241-2.073 4.803z"/><path d="M6.999 2.59c-2.413 0-4.375 1.938-4.375 4.319 0 2.381 1.962 4.318 4.375 4.318 2.412 0 4.375-1.937 4.375-4.318 0-2.381-1.963-4.318-4.375-4.318zm0 7.459c-1.754 0-3.181-1.409-3.181-3.14s1.427-3.14 3.18-3.14c1.755 0 3.182 1.409 3.182 3.14s-1.427 3.14-3.181 3.14z"/></symbol><symbol viewBox="0 0 24 24" id="news" xmlns="http://www.w3.org/2000/svg"><path d="M13 4.5h7m-7 5h7m-16 5h16m-16 5h16M9 9.5l-2.5-5-2.5 5m.5-1h4"/></symbol></svg>