<?xml version="1.0" encoding="utf-8"?><svg xmlns="http://www.w3.org/2000/svg" xmlns:xlink="http://www.w3.org/1999/xlink"><symbol viewBox="0 0 101 12" id="arr" xmlns="http://www.w3.org/2000/svg"><path d="M100.53 6.53a.75.75 0 0 0 0-1.06L95.757.697a.75.75 0 0 0-1.06 1.06L98.939 6l-4.242 4.243a.75.75 0 0 0 1.06 1.06l4.773-4.773zM0 6.75h100v-1.5H0v1.5z"/><defs><linearGradient id="apaint0_linear" x1="66.5" y1="6" x2="67" y2="6" gradientUnits="userSpaceOnUse"><stop stop-color="#D8BB54"/><stop offset=".503" stop-color="#D8BB54"/><stop offset="1" stop-color="#fff"/></linearGradient></defs></symbol><symbol viewBox="0 0 27 8" id="arr_sm" xmlns="http://www.w3.org/2000/svg"><path d="M.646 4.354a.5.5 0 0 1 0-.708L3.828.464a.5.5 0 1 1 .708.708L1.707 4l2.829 2.828a.5.5 0 1 1-.708.708L.646 4.354zM27 4.5H1v-1h26v1z"/></symbol><symbol viewBox="0 0 63 63" id="build" xmlns="http://www.w3.org/2000/svg"><path d="M61.95 60.9h-4.265c.045-.345.065-.697.065-1.05a7.304 7.304 0 0 0-4.2-6.655V17.85c0-.63-.42-1.05-1.05-1.05H36.75V1.05C36.75.42 36.33 0 35.7 0H7.35C6.72 0 6.3.42 6.3 1.05V60.9H1.05c-.63 0-1.05.42-1.05 1.05C0 62.58.42 63 1.05 63h60.9c.63 0 1.05-.42 1.05-1.05 0-.63-.42-1.05-1.05-1.05zm-10.5-8.326a7.578 7.578 0 0 0-1.05-.074c-.793 0-1.57.135-2.305.387-.183-.244-.478-.387-.845-.387-.63 0-1.05.42-1.05 1.05v.322a7.356 7.356 0 0 0-1.104.977 6.828 6.828 0 0 0-.156.17c-.87-1.087-1.99-1.874-3.258-2.257a1.06 1.06 0 0 0-.732-.262 1.24 1.24 0 0 0-.328.042 6.221 6.221 0 0 0-.722-.042c-.658 0-1.399.085-2 .329a6.374 6.374 0 0 0-.22.079 6.545 6.545 0 0 0-2.47-1.249l-.028-.007a6.57 6.57 0 0 0-.427-.094l-.084-.016a6.438 6.438 0 0 0-.484-.064l-.139-.01c-.05-.004-.099-.008-.148-.01a6.23 6.23 0 0 0-.53-.004l-.15.008-.06.003a6.17 6.17 0 0 0-2.71.812V18.9h21v33.674zM8.4 2.1h26.25v14.7H29.4c-.63 0-1.05.42-1.05 1.05v32.655a7.603 7.603 0 0 0-2.008-1.438l-.072-.036a7.27 7.27 0 0 0-2.416-.69l-.036-.004a7.178 7.178 0 0 0-.299-.024l-.08-.004a7.124 7.124 0 0 0-4.54 1.369v-.328c.001-.63-.419-1.05-1.049-1.05-.63 0-1.05.42-1.05 1.05v2.1c0 .158.026.302.075.43a7.568 7.568 0 0 0-1.02 2.825A7.132 7.132 0 0 0 12.6 55.93v-.279c0-.63-.42-1.05-1.05-1.05-.63 0-1.05.42-1.05 1.05v2.1c0 .123.017.237.047.342A7.323 7.323 0 0 0 9.526 60.9H8.4V2.1zm7.922 54.622l.063-.005a5.394 5.394 0 0 1 .415-.017c.63 0 1.05-.42 1.05-1.05 0-2.94 2.31-5.25 5.25-5.25 2.625 0 4.83 1.89 5.145 4.515a1.139 1.139 0 0 0 .515.703l.049.029a1.09 1.09 0 0 0 .276.108c.063.02.134.029.209.026.345.005.666-.183.841-.446l.105-.105c.84-1.05 1.995-1.68 3.36-1.68.71 0 1.418.199 2.054.57-1.253 1.178-1.963 2.713-2.045 4.356a6.174 6.174 0 0 0 .353 2.424H11.655c.491-2.26 2.363-3.969 4.667-4.178zM36.441 60.9c-.401-.678-.636-1.48-.636-2.205 0-1.161.458-2.207 1.245-2.972.15-.14.31-.268.48-.384.164 0 .329-.033.48-.11a4.13 4.13 0 0 1 5.88 2.206c.105.315.42.63.945.63.1 0 .21-.032.32-.088.264-.043.472-.237.625-.542a4.83 4.83 0 0 1 1.804-2.039.965.965 0 0 0 .42-.239A5.325 5.325 0 0 1 50.4 54.6c2.94 0 5.25 2.31 5.25 5.25 0 .315 0 .735-.105 1.05H36.441z"/><path d="M34.651 27.3c-.63 0-1.05.42-1.05 1.05v2.1c0 .63.42 1.05 1.05 1.05.63 0 1.05-.42 1.05-1.05v-2.1c0-.63-.42-1.05-1.05-1.05zm0 18.9c-.63 0-1.05.42-1.05 1.05v2.1c0 .63.42 1.05 1.05 1.05.63 0 1.05-.42 1.05-1.05v-2.1c0-.63-.42-1.05-1.05-1.05zm0-12.6c-.63 0-1.05.42-1.05 1.05v2.1c0 .63.42 1.05 1.05 1.05.63 0 1.05-.42 1.05-1.05v-2.1c0-.63-.42-1.05-1.05-1.05zm0 6.3c-.63 0-1.05.42-1.05 1.05v2.1c0 .63.42 1.05 1.05 1.05.63 0 1.05-.42 1.05-1.05v-2.1c0-.63-.42-1.05-1.05-1.05zm0-18.9c-.63 0-1.05.42-1.05 1.05v2.1c0 .63.42 1.05 1.05 1.05.63 0 1.05-.42 1.05-1.05v-2.1c0-.63-.42-1.05-1.05-1.05zm6.297 10.5c.63 0 1.05-.42 1.05-1.05v-2.1c0-.63-.42-1.05-1.05-1.05-.63 0-1.05.42-1.05 1.05v2.1c0 .63.42 1.05 1.05 1.05zm0-6.3c.63 0 1.05-.42 1.05-1.05v-2.1c0-.63-.42-1.05-1.05-1.05-.63 0-1.05.42-1.05 1.05v2.1c0 .63.42 1.05 1.05 1.05zm0 12.6c.63 0 1.05-.42 1.05-1.05v-2.1c0-.63-.42-1.05-1.05-1.05-.63 0-1.05.42-1.05 1.05v2.1c0 .63.42 1.05 1.05 1.05zm0 6.3c.63 0 1.05-.42 1.05-1.05v-2.1c0-.63-.42-1.05-1.05-1.05-.63 0-1.05.42-1.05 1.05v2.1c0 .63.42 1.05 1.05 1.05zm0 6.3c.63 0 1.05-.42 1.05-1.05v-2.1c0-.63-.42-1.05-1.05-1.05-.63 0-1.05.42-1.05 1.05v2.1c0 .63.42 1.05 1.05 1.05zm6.302-12.6c.63 0 1.05-.42 1.05-1.05v-2.1c0-.63-.42-1.05-1.05-1.05-.63 0-1.05.42-1.05 1.05v2.1c0 .63.42 1.05 1.05 1.05zm0-6.3c.63 0 1.05-.42 1.05-1.05v-2.1c0-.63-.42-1.05-1.05-1.05-.63 0-1.05.42-1.05 1.05v2.1c0 .63.42 1.05 1.05 1.05zm0 18.9c.63 0 1.05-.42 1.05-1.05v-2.1c0-.63-.42-1.05-1.05-1.05-.63 0-1.05.42-1.05 1.05v2.1c0 .63.42 1.05 1.05 1.05zm0-6.3c.63 0 1.05-.42 1.05-1.05v-2.1c0-.63-.42-1.05-1.05-1.05-.63 0-1.05.42-1.05 1.05v2.1c0 .63.42 1.05 1.05 1.05zm0-18.9c.63 0 1.05-.42 1.05-1.05v-2.1c0-.63-.42-1.05-1.05-1.05-.63 0-1.05.42-1.05 1.05v2.1c0 .63.42 1.05 1.05 1.05zM11.552 39.9c.63 0 1.05-.42 1.05-1.05v-2.1c0-.63-.42-1.05-1.05-1.05-.63 0-1.05.42-1.05 1.05v2.1c0 .63.42 1.05 1.05 1.05zm0 6.3c.63 0 1.05-.42 1.05-1.05v-2.1c0-.63-.42-1.05-1.05-1.05-.63 0-1.05.42-1.05 1.05v2.1c0 .63.42 1.05 1.05 1.05zm0 6.3c.63 0 1.05-.42 1.05-1.05v-2.1c0-.63-.42-1.05-1.05-1.05-.63 0-1.05.42-1.05 1.05v2.1c0 .63.42 1.05 1.05 1.05zm0-44.1c.63 0 1.05-.42 1.05-1.05v-2.1c0-.63-.42-1.05-1.05-1.05-.63 0-1.05.42-1.05 1.05v2.1c0 .63.42 1.05 1.05 1.05zm0 6.3c.63 0 1.05-.42 1.05-1.05v-2.1c0-.63-.42-1.05-1.05-1.05-.63 0-1.05.42-1.05 1.05v2.1c0 .63.42 1.05 1.05 1.05zm0 6.3c.63 0 1.05-.42 1.05-1.05v-2.1c0-.63-.42-1.05-1.05-1.05-.63 0-1.05.42-1.05 1.05v2.1c0 .63.42 1.05 1.05 1.05zm0 6.3c.63 0 1.05-.42 1.05-1.05v-2.1c0-.63-.42-1.05-1.05-1.05-.63 0-1.05.42-1.05 1.05v2.1c0 .63.42 1.05 1.05 1.05zm0 6.3c.63 0 1.05-.42 1.05-1.05v-2.1c0-.63-.42-1.05-1.05-1.05-.63 0-1.05.42-1.05 1.05v2.1c0 .63.42 1.05 1.05 1.05zm6.297-18.9c.63 0 1.05-.42 1.05-1.05v-2.1c0-.63-.42-1.05-1.05-1.05-.63 0-1.05.42-1.05 1.05v2.1c0 .63.42 1.05 1.05 1.05zm0-6.3c.63 0 1.05-.42 1.05-1.05v-2.1c0-.63-.42-1.05-1.05-1.05-.63 0-1.05.42-1.05 1.05v2.1c0 .63.42 1.05 1.05 1.05zm0 18.9c.63 0 1.05-.42 1.05-1.05v-2.1c0-.63-.42-1.05-1.05-1.05-.63 0-1.05.42-1.05 1.05v2.1c0 .63.42 1.05 1.05 1.05zm0-6.3c.63 0 1.05-.42 1.05-1.05v-2.1c0-.63-.42-1.05-1.05-1.05-.63 0-1.05.42-1.05 1.05v2.1c0 .63.42 1.05 1.05 1.05zm0 12.6c.63 0 1.05-.42 1.05-1.05v-2.1c0-.63-.42-1.05-1.05-1.05-.63 0-1.05.42-1.05 1.05v2.1c0 .63.42 1.05 1.05 1.05zm0 6.3c.63 0 1.05-.42 1.05-1.05v-2.1c0-.63-.42-1.05-1.05-1.05-.63 0-1.05.42-1.05 1.05v2.1c0 .63.42 1.05 1.05 1.05zm0 6.3c.63 0 1.05-.42 1.05-1.05v-2.1c0-.63-.42-1.05-1.05-1.05-.63 0-1.05.42-1.05 1.05v2.1c0 .63.42 1.05 1.05 1.05zM24.15 21c.63 0 1.05-.42 1.05-1.05v-2.1c0-.63-.42-1.05-1.05-1.05-.63 0-1.05.42-1.05 1.05v2.1c0 .63.42 1.05 1.05 1.05zm0-6.3c.63 0 1.05-.42 1.05-1.05v-2.1c0-.63-.42-1.05-1.05-1.05-.63 0-1.05.42-1.05 1.05v2.1c0 .63.42 1.05 1.05 1.05zm0-6.3c.63 0 1.05-.42 1.05-1.05v-2.1c0-.63-.42-1.05-1.05-1.05-.63 0-1.05.42-1.05 1.05v2.1c0 .63.42 1.05 1.05 1.05zm0 37.8c.63 0 1.05-.42 1.05-1.05v-2.1c0-.63-.42-1.05-1.05-1.05-.63 0-1.05.42-1.05 1.05v2.1c0 .63.42 1.05 1.05 1.05zm0-6.3c.63 0 1.05-.42 1.05-1.05v-2.1c0-.63-.42-1.05-1.05-1.05-.63 0-1.05.42-1.05 1.05v2.1c0 .63.42 1.05 1.05 1.05zm0-6.3c.63 0 1.05-.42 1.05-1.05v-2.1c0-.63-.42-1.05-1.05-1.05-.63 0-1.05.42-1.05 1.05v2.1c0 .63.42 1.05 1.05 1.05zm0-6.3c.63 0 1.05-.42 1.05-1.05v-2.1c0-.63-.42-1.05-1.05-1.05-.63 0-1.05.42-1.05 1.05v2.1c0 .63.42 1.05 1.05 1.05zm6.3-12.6c.63 0 1.05-.42 1.05-1.05v-2.1c0-.63-.42-1.05-1.05-1.05-.63 0-1.05.42-1.05 1.05v2.1c0 .63.42 1.05 1.05 1.05zm0-6.3c.63 0 1.05-.42 1.05-1.05v-2.1c0-.63-.42-1.05-1.05-1.05-.63 0-1.05.42-1.05 1.05v2.1c0 .63.42 1.05 1.05 1.05z"/></symbol><symbol viewBox="0 0 19 19" id="date" xmlns="http://www.w3.org/2000/svg"><path d="M16.823 19H2.177A2.179 2.179 0 0 1 0 16.823V3.76c0-1.2.976-2.176 2.177-2.176h14.646c1.2 0 2.177.975 2.177 2.176v13.063A2.179 2.179 0 0 1 16.823 19zM2.177 2.771a.99.99 0 0 0-.99.99v13.062c0 .546.445.99.99.99h14.646c.545 0 .99-.444.99-.99V3.76a.99.99 0 0 0-.99-.989H2.177z"/><path d="M18.406 7.521H.594a.594.594 0 0 1 0-1.188h17.812a.594.594 0 0 1 0 1.188zM4.552 4.75a.594.594 0 0 1-.594-.594V.594a.594.594 0 0 1 1.187 0v3.562a.594.594 0 0 1-.593.594zm9.896 0a.594.594 0 0 1-.593-.594V.594a.594.594 0 0 1 1.187 0v3.562a.594.594 0 0 1-.594.594z"/></symbol><symbol viewBox="0 0 24 25" id="eye" xmlns="http://www.w3.org/2000/svg"><path d="M2 13.5c5.523-6.667 14.477-6.667 20 0"/><path class="efill" d="M15.682 9.818a4.5 4.5 0 1 1-6.364 6.364 4.5 4.5 0 0 1 6.364-6.364"/></symbol><symbol viewBox="0 0 61 61" id="figure" xmlns="http://www.w3.org/2000/svg"><path d="M1.059 30.5L30.406 1.062l29.438 29.347-29.347 29.438z"/></symbol><symbol viewBox="0 0 399 180" id="floor15" xmlns="http://www.w3.org/2000/svg"><path d="M39.5 143.5L0 179.5v-52l38.5-34 15 9.5 105-95.5 74-7.5L338 71l17.5-11.5 43 28v52l-43-28-17.5 10-103.5-67-76 5-105 90-14-6z" fill-opacity=".8"/></symbol><symbol viewBox="0 0 25 25" id="key" xmlns="http://www.w3.org/2000/svg"><path clip-rule="evenodd" d="M8 22c1.108 0 2.007-.918 2.008-2.05l.004-4.132a4.882 4.882 0 0 0 2.411-2.282c.914-1.793.74-4.045-.504-5.616a4.957 4.957 0 0 0-7.849.018c-1.237 1.577-1.406 3.83-.483 5.617a4.892 4.892 0 0 0 2.409 2.267l-.004 4.123C5.991 21.08 6.89 22 8 22z"/><path d="M8.794 10.5a.294.294 0 1 0-.588 0 .294.294 0 0 0 .588 0M13 5.613C13 4.169 11.88 3 10.5 3S8 4.17 8 5.613V10m4-2.913l.469-.472a2.071 2.071 0 0 1 2.945 0l5.976 6.022a2.11 2.11 0 0 1 0 2.97l-2.757 2.778c-.814.82-2.132.82-2.946 0l-3.596-3.625"/></symbol><symbol viewBox="0 0 14 19" id="location" xmlns="http://www.w3.org/2000/svg"><path d="M7.029 0h-.03C3.14 0 0 3.17 0 7.065c0 2.136 1.082 3.802 2.287 5.46L6.99 19s4.445-6.091 4.723-6.474C12.918 10.867 14 9.2 14 7.066 14 3.178 10.876.015 7.029 0zm3.795 11.868c-.278.383-3.199 4.42-3.82 5.269l-3.828-5.27c-1.134-1.56-2.073-3-2.073-4.802 0-3.273 2.63-5.937 5.869-5.952H7c3.252 0 5.897 2.67 5.897 5.952 0 1.802-.939 3.241-2.073 4.803z"/><path d="M6.999 2.59c-2.413 0-4.375 1.938-4.375 4.319 0 2.381 1.962 4.318 4.375 4.318 2.412 0 4.375-1.937 4.375-4.318 0-2.381-1.963-4.318-4.375-4.318zm0 7.459c-1.754 0-3.181-1.409-3.181-3.14s1.427-3.14 3.18-3.14c1.755 0 3.182 1.409 3.182 3.14s-1.427 3.14-3.181 3.14z"/></symbol><symbol viewBox="0 0 24 24" id="news" xmlns="http://www.w3.org/2000/svg"><path d="M13 4.5h7m-7 5h7m-16 5h16m-16 5h16M9 9.5l-2.5-5-2.5 5m.5-1h4"/></symbol></svg>